<mxfile host="app.diagrams.net" modified="2024-05-11T16:02:14.776Z" agent="Mozilla/5.0 (Windows NT 10.0; Win64; x64; rv:125.0) Gecko/20100101 Firefox/125.0" version="24.0.2" etag="7BEL4biKfgGT6XFXIcDm" type="github">
  <diagram name="Page-1" id="s389JHU22pq62tvGNz7s">
    <mxGraphModel>
      <root>
        <mxCell id="0" />
        <mxCell id="1" parent="0" />
      </root>
    </mxGraphModel>
  </diagram>
</mxfile>
